<svg width="608" height="608" viewBox="0 0 608 608" fill="none" xmlns="http://www.w3.org/2000/svg">
<path d="M172.8 254.8C172.8 262.2 173.6 268.2 175 272.6C176.6 277 178.6 281.8 181.4 287C182.4 288.6 182.8 290.2 182.8 291.6C182.8 293.6 181.6 295.6 179 297.6L166.4 306C164.6 307.2 162.8 307.8 161.2 307.8C159.2 307.8 157.2 306.8 155.2 305C152.4 302 150 298.8 148 295.6C146 292.2 144 288.4 141.8 283.8C126.2 302.2 106.6 311.4 83 311.4C66.2 311.4 52.8 306.6 43 297C33.2 287.4 28.2 274.6 28.2 258.6C28.2 241.6 34.2 227.8 46.4 217.4C58.6 207 74.8 201.8 95.4 201.8C102.2 201.8 109.2 202.4 116.6 203.4C124 204.4 131.6 206 139.6 207.8V193.2C139.6 178 136.4 167.4 130.2 161.2C123.8 155 113 152 97.6 152C90.6 152 83.4 152.8 76 154.6C68.6 156.4 61.4 158.6 54.4 161.4C51.2 162.8 48.8 163.6 47.4 164C46 164.4 45 164.6 44.2 164.6C41.4 164.6 40 162.6 40 158.4V148.6C40 145.4 40.4 143 41.4 141.6C42.4 140.2 44.2 138.8 47 137.4C54 133.8 62.4 130.8 72.2 128.4C82 125.8 92.4 124.6 103.4 124.6C127.2 124.6 144.6 130 155.8 140.8C166.8 151.6 172.4 168 172.4 190V254.8H172.8ZM91.6 285.2C98.2 285.2 105 284 112.2 281.6C119.4 279.2 125.8 274.8 131.2 268.8C134.4 265 136.8 260.8 138 256C139.2 251.2 140 245.4 140 238.6V230.2C134.2 228.8 128 227.6 121.6 226.8C115.2 226 109 225.6 102.8 225.6C89.4 225.6 79.6 228.2 73 233.6C66.4 239 63.2 246.6 63.2 256.6C63.2 266 65.6 273 70.6 277.8C75.4 282.8 82.4 285.2 91.6 285.2ZM252.2 306.8C248.6 306.8 246.2 306.2 244.6 304.8C243 303.6 241.6 300.8 240.4 297L193.4 142.4C192.2 138.4 191.6 135.8 191.6 134.4C191.6 131.2 193.2 129.4 196.4 129.4H216C219.8 129.4 222.4 130 223.8 131.4C225.4 132.6 226.6 135.4 227.8 139.2L261.4 271.6L292.6 139.2C293.6 135.2 294.8 132.6 296.4 131.4C298 130.2 300.8 129.4 304.4 129.4H320.4C324.2 129.4 326.8 130 328.4 131.4C330 132.6 331.4 135.4 332.2 139.2L363.8 273.2L398.4 139.2C399.6 135.2 401 132.6 402.4 131.4C404 130.2 406.6 129.4 410.2 129.4H428.8C432 129.4 433.8 131 433.8 134.4C433.8 135.4 433.6 136.4 433.4 137.6C433.2 138.8 432.8 140.4 432 142.6L383.8 297.2C382.6 301.2 381.2 303.8 379.6 305C378 306.2 375.4 307 372 307H354.8C351 307 348.4 306.4 346.8 305C345.2 303.6 343.8 301 343 297L312 168L281.2 296.8C280.2 300.8 279 303.4 277.4 304.8C275.8 306.2 273 306.8 269.4 306.8H252.2ZM509.2 312.2C498.8 312.2 488.4 311 478.4 308.6C468.4 306.2 460.6 303.6 455.4 300.6C452.2 298.8 450 296.8 449.2 295C448.4 293.2 448 291.2 448 289.4V279.2C448 275 449.6 273 452.6 273C453.8 273 455 273.2 456.2 273.6C457.4 274 459.2 274.8 461.2 275.6C468 278.6 475.4 281 483.2 282.6C491.2 284.2 499 285 507 285C519.6 285 529.4 282.8 536.2 278.4C543 274 546.6 267.6 546.6 259.4C546.6 253.8 544.8 249.2 541.2 245.4C537.6 241.6 530.8 238.2 521 235L492 226C477.4 221.4 466.6 214.6 460 205.6C453.4 196.8 450 187 450 176.6C450 168.2 451.8 160.8 455.4 154.4C459 148 463.8 142.4 469.8 138C475.8 133.4 482.6 130 490.6 127.6C498.6 125.2 507 124.2 515.8 124.2C520.2 124.2 524.8 124.4 529.2 125C533.8 125.6 538 126.4 542.2 127.2C546.2 128.2 550 129.2 553.6 130.4C557.2 131.6 560 132.8 562 134C564.8 135.6 566.8 137.2 568 139C569.2 140.6 569.8 142.8 569.8 145.6V155C569.8 159.2 568.2 161.4 565.2 161.4C563.6 161.4 561 160.6 557.6 159C546.2 153.8 533.4 151.2 519.2 151.2C507.8 151.2 498.8 153 492.6 156.8C486.4 160.6 483.2 166.4 483.2 174.6C483.2 180.2 485.2 185 489.2 188.8C493.2 192.6 500.6 196.4 511.2 199.8L539.6 208.8C554 213.4 564.4 219.8 570.6 228C576.8 236.2 579.8 245.6 579.8 256C579.8 264.6 578 272.4 574.6 279.2C571 286 566.2 292 560 296.8C553.8 301.8 546.4 305.4 537.8 308C528.8 310.8 519.4 312.2 509.2 312.2Z" fill="white"/>
<path fill-rule="evenodd" clip-rule="evenodd" d="M547 409.4C481.2 458 385.6 483.8 303.4 483.8C188.2 483.8 84.4 441.2 5.99997 370.4C-0.200028 364.8 5.39997 357.2 12.8 361.6C97.6 410.8 202.2 440.6 310.4 440.6C383.4 440.6 463.6 425.4 537.4 394.2C548.4 389.2 557.8 401.4 547 409.4Z" fill="#FF9900"/>
<path fill-rule="evenodd" clip-rule="evenodd" d="M574.4 378.2C566 367.4 518.8 373 497.4 375.6C491 376.4 490 370.8 495.8 366.6C533.4 340.2 595.2 347.8 602.4 356.6C609.6 365.6 600.4 427.4 565.2 457C559.8 461.6 554.6 459.2 557 453.2C565 433.4 582.8 388.8 574.4 378.2Z" fill="#FF9900"/>
</svg>
